{"title":"Selena Gomez - Same Old Love (2015.Electropop)","uid":12552771,"size":124615055,"categoryP":"video","categoryS":"music_videos","magnet":"?xt=urn:btih:7206c08da3e452c8a0bf8a7475bda7539775f35b&amp;dn=Selena+Gomez+-+Same+Old+Love+%282015.Electropop%29&amp;tr=udp%3A%2F%2Ftracker.leechers-paradise.org%3A6969&amp;tr=udp%3A%2F%2Fzer0day.ch%3A1337&amp;tr=udp%3A%2F%2Fopen.demonii.com%3A1337&amp;tr=udp%3A%2F%2Ftracker.coppersurfer.tk%3A6969&amp;tr=udp%3A%2F%2Fexodus.desync.com%3A6969","seeders":1,"leechers":0,"uploader":"MeRaDil","files":1,"time":1444584221,"description":"SELENA GOMEZ - SAME OLD LOVE\r\n\r\n \nhttp://ultraimg.com/images/selena-01.png\r\n \nhttp://ultraimg.com/images/selena-02.png\r\n \nhttp://ultraimg.com/images/selena-03.png\r\n \nhttp://ultraimg.com/images/selena-04.png\r\n\r\n\r\nMEDIA INFO\r\nGeneral\r\nSelena Gomez - Same Old Love\r\nFormat                                   : MPEG-4\r\nFormat profile                           : Base Media\r\nCodec ID                                 : isom\r\nFile size                                : 119 MiB\r\nDuration                                 : 4mn 24s\r\nOverall bit rate                         : 3 773 Kbps\r\nMusicVid name                            : Same Old Love\r\nAlbum                                    : Revival\r\nPerformer                                : Selena Gomez\r\nGenre                                    : Electropop\r\nContentType                              : Music Video\r\nRecorded date                            : 2015\r\nMake                                     : MeRaDil\r\nRelease date                             : USA . september 22 . 2015\r\n\r\nVideo\r\nID                                       : 1\r\nFormat                                   : AVC\r\nFormat/Info                              : Advanced Video Codec\r\nFormat profile                           :   \r\nFormat settings, CABAC                   : Yes\r\nFormat settings, ReFrames                : 2 frames\r\nCodec ID                                 : avc1\r\nCodec ID/Info                            : Advanced Video Coding\r\nDuration                                 : 4mn 24s\r\nBit rate                                 : 3 511 Kbps\r\nWidth                                    : 1 920 pixels\r\nHeight                                   : 1 080 pixels\r\nDisplay aspect ratio                     : 16:9\r\nFrame rate mode                          : Variable\r\nFrame rate                               : 23.976 fps\r\nMinimum frame rate                       : 23.974 fps\r\nMaximum frame rate                       : 23.981 fps\r\nColor space                              : YUV\r\nChroma subsampling                       : 4:2:0\r\nBit depth                                : 8 bits\r\nScan type                                : Progressive\r\nBits/(Pixel*Frame)                       : 0.071\r\nStream size                              : 111 MiB (93%)\r\n\r\nAudio\r\nID                                       : 2\r\nFormat                                   : AAC\r\nFormat/Info                              : Advanced Audio Codec\r\nFormat profile                           : LC\r\nCodec ID                                 : 40\r\nDuration                                 : 4mn 24s\r\nBit rate mode                            : Constant\r\nBit rate                                 : 256 Kbps\r\nChannel(s)                               : 2 channels\r\nChannel positions                        : Front: L R\r\nSampling rate                            : 44.1 KHz\r\nCompression mode                         : Lossy\r\nStream size                              : 8.06 MiB (7%)\r\n \nhttps://thepiratebay.la/user/MeRaDil\r\n\r\nSelena Gomez * Revival * Electropop * Promo","torrent":{"xt":"urn:btih:7206c08da3e452c8a0bf8a7475bda7539775f35b","amp;dn":"Selena+Gomez+-+Same+Old+Love+%282015.Electropop%29","amp;tr":["udp%3A%2F%2Ftracker.leechers-paradise.org%3A6969","udp%3A%2F%2Fzer0day.ch%3A1337","udp%3A%2F%2Fopen.demonii.com%3A1337","udp%3A%2F%2Ftracker.coppersurfer.tk%3A6969","udp%3A%2F%2Fexodus.desync.com%3A6969"],"infoHash":"7206c08da3e452c8a0bf8a7475bda7539775f35b","infoHashBuffer":{"type":"Buffer","data":[114,6,192,141,163,228,82,200,160,191,138,116,117,189,167,83,151,117,243,91]},"announce":[],"urlList":[]}}